<svg width="272px" height="112px" id="Layer_1" data-name="Layer 1" xmlns="http://www.w3.org/2000/svg" viewBox="0 0 272.24 111.61">
    <defs>
        <style>.cls-1{fill:#0091da;}.cls-2{fill:#720062;}</style>
    </defs>
    <title>PTT19002 Logo_RGB_FINAL</title>
    <path class="cls-1" d="M248.07,23.06c-2.4-1.69-6.17-2.53-11.28-2.53s-8.88.84-11.29,2.53-3.6,4.49-3.6,8.39V55.19h6.82V32.82a18.48,18.48,0,0,1,.2-2.86,3.84,3.84,0,0,1,1-2.08,4.83,4.83,0,0,1,2.41-1.27,24.21,24.21,0,0,1,9,0,4.79,4.79,0,0,1,2.4,1.27,3.85,3.85,0,0,1,1,2.08,18.58,18.58,0,0,1,.19,2.86V55.19h6.83V31.45Q251.68,25.6,248.07,23.06Z" />
    <path class="cls-1" d="M213.58,24.2q-3.51-2.76-11.38-2.76-2.74,0-5.4,0c-1.78,0-3.28.06-4.49.1l-1.24,5.66c1.48-.05,3.24-.08,5.3-.1l5.83,0a19.13,19.13,0,0,1,4.51.42,5.64,5.64,0,0,1,2.54,1.24,3.59,3.59,0,0,1,1.11,2,15.64,15.64,0,0,1,.22,2.83v1.95a11.39,11.39,0,0,0-3.25-1.33,23.77,23.77,0,0,0-6.11-.62q-6.83,0-10.05,2.34T188,43.75v1.43q0,5,3,7.51t9.79,2.5h9.75c2.52,0,4.25-.41,5.21-1.23s1.43-2.28,1.43-4.36V32.36Q217.09,27,213.58,24.2Zm-3,25.46H200.7q-3.64,0-5-1.13a4.2,4.2,0,0,1-1.36-3.42V43.75a6.81,6.81,0,0,1,.32-2.28A2.93,2.93,0,0,1,195.79,40a5.44,5.44,0,0,1,2.21-.78,21.64,21.64,0,0,1,3.54-.23H203a24.56,24.56,0,0,1,4,.26,5.58,5.58,0,0,1,2.27.81,2.64,2.64,0,0,1,1,1.46,7.67,7.67,0,0,1,.26,2.15Z" />
    <path class="cls-1" d="M180.87,23q-3.45-2.47-10.15-2.47a17.37,17.37,0,0,0-6.11,1,8.51,8.51,0,0,0-4,2.76,8.51,8.51,0,0,0-4-2.76,17.42,17.42,0,0,0-6.12-1q-6.69,0-10.11,2.47t-3.42,8.45V55.19h6.83V32.82A21.78,21.78,0,0,1,143.9,30a4.16,4.16,0,0,1,.81-2.08,3.82,3.82,0,0,1,2-1.27,16.68,16.68,0,0,1,7.44,0A3.76,3.76,0,0,1,157,30a21.78,21.78,0,0,1,.17,2.86V55.19H164V31.91a12,12,0,0,1,.23-2.44,3.68,3.68,0,0,1,.95-1.82,4.23,4.23,0,0,1,2-1.11,14.22,14.22,0,0,1,3.51-.35,13,13,0,0,1,3.74.42A3.79,3.79,0,0,1,177.33,30a23.83,23.83,0,0,1,.16,2.86V55.19h6.83V31.45Q184.32,25.48,180.87,23Z" />
    <path class="cls-1" d="M124.17,49.4a3.33,3.33,0,0,1-1.85-1,4,4,0,0,1-.88-2.08,22.22,22.22,0,0,1-.23-3.51V27.23H132.4l1.17-5.66H121.21V12.4l-6.83,1.23V43a25.86,25.86,0,0,0,.56,5.85,7.33,7.33,0,0,0,2,3.74,8.33,8.33,0,0,0,4,2,29,29,0,0,0,6.41.58H132l1.17-5.53h-5.92A14.58,14.58,0,0,1,124.17,49.4Z" />
    <path class="cls-1" d="M101.75,21.57V43.94a18.39,18.39,0,0,1-.2,2.86,3.84,3.84,0,0,1-1,2.08,4.76,4.76,0,0,1-2.34,1.27,17.64,17.64,0,0,1-4.36.42,18,18,0,0,1-4.39-.42,4.77,4.77,0,0,1-2.37-1.27,3.78,3.78,0,0,1-1-2.08,18.39,18.39,0,0,1-.2-2.86V21.57H79.12V45.31q0,6,3.7,8.45t11.06,2.47q7.28,0,11-2.47t3.71-8.45V21.57Z" />
    <path class="cls-1" d="M74.21,28.82a10.94,10.94,0,0,0-2.76-4.94,10.3,10.3,0,0,0-4.85-2.6,29.63,29.63,0,0,0-7.18-.75,29.66,29.66,0,0,0-7.19.75,10.3,10.3,0,0,0-4.85,2.6,11,11,0,0,0-2.76,4.94,28.76,28.76,0,0,0-.88,7.77v3.58a28.76,28.76,0,0,0,.88,7.77,11,11,0,0,0,2.76,4.94,10.4,10.4,0,0,0,4.85,2.61,30.22,30.22,0,0,0,7.19.74,30.19,30.19,0,0,0,7.18-.74,10.4,10.4,0,0,0,4.85-2.61,10.94,10.94,0,0,0,2.76-4.94,28.76,28.76,0,0,0,.88-7.77V36.59A28.76,28.76,0,0,0,74.21,28.82ZM68.13,40.17a33.05,33.05,0,0,1-.36,5.49,6.54,6.54,0,0,1-1.3,3.16,4.55,4.55,0,0,1-2.63,1.46,22,22,0,0,1-4.42.36A22,22,0,0,1,55,50.28a4.59,4.59,0,0,1-2.63-1.46,6.54,6.54,0,0,1-1.3-3.16,33.05,33.05,0,0,1-.36-5.49V36.59a33.05,33.05,0,0,1,.36-5.49,6.54,6.54,0,0,1,1.3-3.16A4.64,4.64,0,0,1,55,26.48a22,22,0,0,1,4.43-.36,22,22,0,0,1,4.42.36,4.61,4.61,0,0,1,2.63,1.46,6.54,6.54,0,0,1,1.3,3.16,33.05,33.05,0,0,1,.36,5.49Z" />
    <path class="cls-1" d="M40,21.44H35.2A21.5,21.5,0,0,0,30,22a10.79,10.79,0,0,0-4,1.86,8.42,8.42,0,0,0-2.57,3.31,12.21,12.21,0,0,0-.91,5v23h6.83V33.67a21.27,21.27,0,0,1,.16-2.8,4.21,4.21,0,0,1,.82-2.08,3.81,3.81,0,0,1,2-1.27,12,12,0,0,1,3.57-.42h1.89c.65,0,1.26,0,1.82,0l1.43,0h.65l1.17-5.66Q41.7,21.44,40,21.44Z" />
    <path class="cls-1" d="M9.79,49.4a3.39,3.39,0,0,1-1.86-1,4,4,0,0,1-.87-2.08,21.08,21.08,0,0,1-.23-3.51V27.23H18l1.17-5.66H6.83V12.4L0,13.63V43a25.92,25.92,0,0,0,.55,5.85,7.34,7.34,0,0,0,2,3.74,8.28,8.28,0,0,0,4,2,28.92,28.92,0,0,0,6.4.58h4.69l1.17-5.53H12.88A14.58,14.58,0,0,1,9.79,49.4Z" />
    <path class="cls-1" d="M267,32.46l2.55-2.55a9.37,9.37,0,0,0,2.73-6.6V7.54H267Z" />
    <path class="cls-1" d="M257.49,7.54h-19.8l-5.62,5.63h25.42Z" />
    <polygon class="cls-2" points="265.02 34.4 265.02 7.54 259.4 7.54 259.4 39.98 259.44 39.98 265.02 34.4" />
    <path class="cls-2" d="M239.6,5.63h32.64V0H249.08a9.32,9.32,0,0,0-6.59,2.73Z" />
    <path class="cls-2" d="M237.47,100.24V78.73a23.1,23.1,0,0,1,.16-2.79,4.17,4.17,0,0,1,.82-2.08,3.81,3.81,0,0,1,2-1.27,12,12,0,0,1,3.57-.42h1.89c.65,0,1.25,0,1.81,0l1.43,0h.65l1.17-5.65c-.73,0-1.66-.07-2.79-.07h-4.81a21.42,21.42,0,0,0-5.2.59,10.66,10.66,0,0,0-4,1.85,8.24,8.24,0,0,0-2.57,3.31,12.21,12.21,0,0,0-.91,5v23Z" />
    <path class="cls-2" d="M226,73.3a9.19,9.19,0,0,0-2.17-4,10.86,10.86,0,0,0-4.36-2.73,21.1,21.1,0,0,0-7.11-1,22.26,22.26,0,0,0-7.7,1.11,10.56,10.56,0,0,0-4.62,3.15,11.57,11.57,0,0,0-2.27,5,33,33,0,0,0-.62,6.67v3.63a31.14,31.14,0,0,0,.58,6.28,10.69,10.69,0,0,0,2.25,4.8,10.5,10.5,0,0,0,4.55,3.06,22,22,0,0,0,7.5,1.07h5l2.63,0,3.44-.1,1.17-5.65c-3.07.08-5.57.13-7.5.13h-4.78a19.24,19.24,0,0,1-4.16-.36A4.5,4.5,0,0,1,205.47,93a5.15,5.15,0,0,1-1.17-2.67,26.18,26.18,0,0,1-.3-4.42h17.94a8.6,8.6,0,0,0,2.11-.22,2.64,2.64,0,0,0,1.46-1,4.85,4.85,0,0,0,.85-2.11,21,21,0,0,0,.26-3.7V78A18.41,18.41,0,0,0,226,73.3Zm-5.84,7.38H204a32,32,0,0,1,.3-4.87,6,6,0,0,1,1.17-3,4.36,4.36,0,0,1,2.43-1.46,17.81,17.81,0,0,1,4.16-.39,18.88,18.88,0,0,1,4,.35,5.48,5.48,0,0,1,2.5,1.21,4.39,4.39,0,0,1,1.3,2.3,15.41,15.41,0,0,1,.36,3.61Z" />
    <path class="cls-2" d="M193,74a11.29,11.29,0,0,0-2.7-5,10.06,10.06,0,0,0-4.78-2.63,28.88,28.88,0,0,0-7.08-.75,27.81,27.81,0,0,0-7.08.78A10.54,10.54,0,0,0,166.51,69,10.87,10.87,0,0,0,163.75,74a28.49,28.49,0,0,0-.88,7.71v30h6.89v-13a9.82,9.82,0,0,0,3.41,1.91,15.54,15.54,0,0,0,5.16.75,25.22,25.22,0,0,0,7.67-1,10.23,10.23,0,0,0,4.71-3,11.31,11.31,0,0,0,2.41-5.07,35,35,0,0,0,.68-7.38V82A31.54,31.54,0,0,0,193,74ZM186.85,84.9a43.2,43.2,0,0,1-.29,5.56,6.62,6.62,0,0,1-1.24,3.28,4.55,4.55,0,0,1-2.6,1.56,19.85,19.85,0,0,1-4.39.39,19.17,19.17,0,0,1-4.22-.39,5,5,0,0,1-2.66-1.46A6.1,6.1,0,0,1,170.08,91a23,23,0,0,1-.39-4.68V81.66a33.27,33.27,0,0,1,.36-5.5A6.36,6.36,0,0,1,171.38,73a4.79,4.79,0,0,1,2.67-1.46,25.92,25.92,0,0,1,8.61,0,4.55,4.55,0,0,1,2.6,1.49,6.66,6.66,0,0,1,1.26,3.25,38.7,38.7,0,0,1,.33,5.69Z" />
    <path class="cls-2" d="M158.51,74a11.18,11.18,0,0,0-2.69-5A10.1,10.1,0,0,0,151,66.35,28.88,28.88,0,0,0,144,65.6a27.84,27.84,0,0,0-7.09.78A10.59,10.59,0,0,0,132.06,69,11.05,11.05,0,0,0,129.3,74a28.94,28.94,0,0,0-.87,7.71v30h6.88v-13a10,10,0,0,0,3.42,1.91,15.49,15.49,0,0,0,5.16.75,25.22,25.22,0,0,0,7.67-1,10.34,10.34,0,0,0,4.71-3,11.31,11.31,0,0,0,2.41-5.07,35,35,0,0,0,.68-7.38V82A31,31,0,0,0,158.51,74Zm-6.1,10.88a41.19,41.19,0,0,1-.3,5.56,6.52,6.52,0,0,1-1.23,3.28,4.58,4.58,0,0,1-2.6,1.56,19.91,19.91,0,0,1-4.39.39,19.11,19.11,0,0,1-4.22-.39A5,5,0,0,1,137,93.84,6.09,6.09,0,0,1,135.64,91a23,23,0,0,1-.39-4.68V81.66a33.27,33.27,0,0,1,.36-5.5A6.27,6.27,0,0,1,136.94,73a4.8,4.8,0,0,1,2.66-1.46,21.19,21.19,0,0,1,4.29-.36,21,21,0,0,1,4.32.36,4.52,4.52,0,0,1,2.6,1.49,6.66,6.66,0,0,1,1.27,3.25,38.7,38.7,0,0,1,.33,5.69Z" />
    <path class="cls-2" d="M124.46,73.3a9.11,9.11,0,0,0-2.18-4,10.82,10.82,0,0,0-4.35-2.73,21.13,21.13,0,0,0-7.12-1,22.29,22.29,0,0,0-7.7,1.11,10.53,10.53,0,0,0-4.61,3.15,11.58,11.58,0,0,0-2.28,5,33,33,0,0,0-.61,6.67v3.63a31.14,31.14,0,0,0,.58,6.28,10.78,10.78,0,0,0,2.24,4.8A10.56,10.56,0,0,0,103,99.3a22.1,22.1,0,0,0,7.51,1.07h5l2.63,0,3.44-.1,1.17-5.65c-3.08.08-5.58.13-7.5.13h-4.78a19.24,19.24,0,0,1-4.16-.36A4.57,4.57,0,0,1,103.89,93a5.31,5.31,0,0,1-1.17-2.67,27.45,27.45,0,0,1-.29-4.42h17.94a8.65,8.65,0,0,0,2.11-.22,2.67,2.67,0,0,0,1.46-1,5,5,0,0,0,.85-2.11,21,21,0,0,0,.26-3.7V78A18.41,18.41,0,0,0,124.46,73.3Zm-5.85,7.38H102.43a33.58,33.58,0,0,1,.29-4.87,6.14,6.14,0,0,1,1.17-3,4.42,4.42,0,0,1,2.44-1.46,17.81,17.81,0,0,1,4.16-.39,18.78,18.78,0,0,1,4,.35A5.51,5.51,0,0,1,117,72.56a4.46,4.46,0,0,1,1.3,2.3,16,16,0,0,1,.35,3.61Z" />
    <path class="cls-2" d="M91.38,74a11.18,11.18,0,0,0-2.69-5,10.1,10.1,0,0,0-4.78-2.63,28.88,28.88,0,0,0-7.08-.75,27.84,27.84,0,0,0-7.09.78A10.59,10.59,0,0,0,64.93,69,11.05,11.05,0,0,0,62.17,74a28.9,28.9,0,0,0-.88,7.71v30h6.89v-13a10,10,0,0,0,3.42,1.91,15.45,15.45,0,0,0,5.16.75,25.22,25.22,0,0,0,7.67-1,10.34,10.34,0,0,0,4.71-3,11.31,11.31,0,0,0,2.41-5.07,35,35,0,0,0,.68-7.38V82A31,31,0,0,0,91.38,74ZM85.27,84.9A41.45,41.45,0,0,1,85,90.46a6.52,6.52,0,0,1-1.23,3.28,4.58,4.58,0,0,1-2.6,1.56,19.91,19.91,0,0,1-4.39.39,19.11,19.11,0,0,1-4.22-.39,5,5,0,0,1-2.67-1.46A6.09,6.09,0,0,1,68.51,91a23,23,0,0,1-.39-4.68V81.66a33.27,33.27,0,0,1,.36-5.5A6.27,6.27,0,0,1,69.81,73a4.8,4.8,0,0,1,2.66-1.46,21.19,21.19,0,0,1,4.29-.36,21,21,0,0,1,4.32.36A4.52,4.52,0,0,1,83.68,73,6.66,6.66,0,0,1,85,76.29,38.92,38.92,0,0,1,85.27,82Z" />
</svg>
